<svg viewBox="0 0 128 128" xmlns="http://www.w3.org/2000/svg"><path d="M98.78 0H29.22A7.21 7.21 0 0 0 22 7.19V120.8a7.08 7.08 0 0 0 4.42 6.63 7.22 7.22 0 0 0 7.87-1.5l28.85-28.34a1.23 1.23 0 0 1 1.72 0l28.86 28.33a7.21 7.21 0 0 0 7.87 1.5 7.08 7.08 0 0 0 4.41-6.62V7.19A7.21 7.21 0 0 0 98.78 0ZM100 120.8a1.14 1.14 0 0 1-.74 1.09 1.17 1.17 0 0 1-1.34-.25L69.06 93.31a7.26 7.26 0 0 0-10.13 0l-28.85 28.33a1.18 1.18 0 0 1-1.34.25 1.14 1.14 0 0 1-.74-1.09V7.19A1.21 1.21 0 0 1 29.22 6h69.56A1.21 1.21 0 0 1 100 7.19Z" fill="#9e9e9e" class="fill-000000"></path></svg>
